<?xml version="1.0" encoding="UTF-8"?>
<svg width="227px" height="120px" viewBox="0 0 227 120" version="1.1" xmlns="http://www.w3.org/2000/svg" xmlns:xlink="http://www.w3.org/1999/xlink">
    <!-- Generator: Sketch 58 (84663) - https://sketch.com -->
    <title>bottom-laying</title>
    <desc>Created with Sketch.</desc>
    <g id="Templates" stroke="none" stroke-width="1" fill="none" fill-rule="evenodd">
        <g id="Landing-Page-Example" transform="translate(-489.000000, -4099.000000)">
            <g id="Bottom-Section" transform="translate(0.000000, 3900.000000)">
                <g id="content" transform="translate(290.000000, 165.000000)">
                    <g id="Illustrations/laying" transform="translate(190.000000, 0.000000)">
                        <polyline id="Accent" fill="#FF5678" points="51.061338 107.429951 51.6734694 115.109949 63.3039662 117.874748 72.1798716 121.868347 79.2193828 128.012345 82.5861055 125.247546 86.8710254 115.724349 91.7680767 114.802749 109.519887 116.645949 115.641202 118.489148 113.498742 128.933945 111.356282 136.613943 146.859903 134.463543 145.635641 116.645949 138.290064 100.364353 109.213822 86.2331576 87.4831568 88.9979568 72.1798716 105.893952 65.4464261 109.580351 53.5098637 108.965951"></polyline>
                        <path d="M197.454239,36.8390167 C199.846231,39.7480487 196.322156,43.861853 194.323732,45.8916523 C193.354031,46.8771524 192.550074,48.0160818 191.602084,49.0260815 C190.665409,50.0241376 189.489902,50.809659 188.648638,51.7731093 C187.765478,52.7849465 186.746237,53.8923325 186.007722,55.0306494 C185.540455,55.7518591 184.847199,56.5572864 184.615095,57.3942571 C184.281463,58.5978044 184.560356,57.9026257 185.001324,58.5831046 C185.451772,59.277977 185.60345,59.3180953 185.756352,60.2867518 C185.904666,61.2284587 186.115671,61.9175125 186.624221,62.722021 C187.461816,64.0471481 188.366382,65.2929573 188.957193,66.7580388 C189.742496,68.706683 190.29814,70.685033 190.923813,72.6897202 C191.167844,73.4715665 191.331449,74.3670302 191.725323,75.0873211 C192.284331,76.1104895 192.363228,76.0247406 193.195319,75.3865236 C195.679358,73.4816727 198.19153,71.4681043 200.781071,69.6526773 C202.264522,68.6126654 203.805464,67.594397 205.37087,66.6833148 C206.445463,66.0579602 208.75397,64.9450617 209.291878,63.7843889 C210.005011,62.2451958 208.894946,60.8327887 210.423044,59.4154816 C211.417821,58.4924557 213.039801,57.9807184 214.336101,57.7565463 C216.168473,57.4398877 218.192584,57.8922133 220.022816,58.056055 C221.87323,58.2214279 223.682668,58.0413552 225.497303,57.6625287 C228.275219,57.0828048 233.611789,53.8748765 235.412052,57.7286779 C236.199801,59.4148691 235.667398,61.2832767 235.519083,63.0117299 C235.39034,64.5181546 234.948455,66.1173719 234.010557,67.3564438 C232.938411,68.7722196 231.377897,68.8463312 229.754694,69.2224015 C227.837606,69.6661521 225.870383,69.8278501 223.950857,70.2608821 C223.005314,70.4740294 222.072614,70.5778468 221.101689,70.6225588 C220.237795,70.662677 218.991648,70.3123314 218.233256,70.4228863 C217.514313,70.5276225 217.759873,70.9817855 217.254992,71.2966065 C217.050103,71.4243111 216.632682,71.3327436 216.504856,71.4356423 C216.153794,71.7180012 216.052268,71.9639168 215.796311,72.4753479 C214.98318,74.0999836 213.75324,75.6835824 212.707699,77.1719386 C211.827292,78.4257102 210.807133,79.9609221 209.771377,81.0796392 C207.575405,83.4518218 205.442734,86.0656325 203.275507,88.5443887 C202.172781,89.8055103 200.850183,91.1471746 199.568868,92.2312859 C199.173464,92.5660129 198.374095,92.8670529 198.171959,93.3356094 C197.883587,94.0035323 198.667972,95.4735137 198.851148,96.1448052 C199.286305,97.7409601 199.345325,99.389483 199.807088,100.961444 C200.248974,102.464807 200.40952,104.104142 200.507377,105.671204 C200.729085,109.213246 201.212865,112.572767 201.099412,116.116953 C201.001249,119.173289 200.889325,122.104371 199.828494,125.105277 C198.862768,127.836686 195.969871,130.810336 193.279415,131.816661 C191.677924,132.415985 190.190191,132.96049 188.578609,133.285417 C186.986904,133.606363 185.309879,133.934965 183.729489,134.386679 C180.797448,135.224568 177.707002,135.809804 174.661814,136.096757 C170.764353,136.463946 166.698395,136.499164 162.811026,136.36411 C161.038285,136.302554 159.21631,136.298879 157.46681,136.304086 C155.653703,136.309598 153.945793,136.666987 152.133604,136.857166 C145.738037,137.528151 138.979176,136.988852 132.587279,137.645137 C129.428027,137.969452 126.273668,138.593888 123.059677,138.63125 C120.182069,138.664325 117.264402,138.474452 114.450401,138.461896 C113.558068,138.457915 112.78041,138.52927 111.888689,138.324391 C111.418363,138.216286 110.757217,137.795504 110.282305,138.038051 C109.867636,138.249667 109.554799,139.142375 109.297619,139.522426 C108.735858,140.353884 108.051165,141.021501 107.328246,141.710861 C104.45859,144.44717 101.614927,145.368665 97.8486553,146.371315 C96.1196444,146.831909 95.2661478,147.072618 93.8145004,148.126105 C92.6319597,148.984207 91.435352,149.60068 90.0742223,150.106599 C87.404561,151.098836 84.2563178,150.331383 81.7472031,149.470526 C80.5322473,149.053725 79.2555192,148.674592 78.0142643,148.179698 C76.3234788,147.505957 74.9280991,146.386627 73.2617779,145.698186 C73.4529048,147.476863 71.5245103,148.074349 70.9395089,149.269628 C70.5615362,150.041981 70.7905828,151.254716 70.3875342,152.127823 C70.0138428,152.937538 69.4358749,153.703153 68.5346731,153.915076 C67.3065677,154.20356 65.1112071,152.836783 64.2485364,152.039318 C63.7696487,151.596486 63.342136,150.417439 62.7556055,150.221135 C61.9907919,149.964807 60.5886846,151.096999 59.8648486,151.352408 C56.4004049,152.575861 52.889785,153.152829 49.1699957,152.665591 C45.4009722,152.171616 41.9460084,150.832708 38.4115358,149.563012 C31.4893762,147.0766 25.4641371,142.983314 20.0437767,138.054588 C19.7422548,137.780192 19.3046505,137.535808 19.0967044,137.176275 C18.9150573,136.862372 18.9309591,136.121257 18.8123075,135.946084 C18.4591049,135.424547 17.9300654,135.516727 17.2676959,135.466809 C15.2212613,135.312154 13.5956119,134.817873 12.0094111,133.44589 C9.51283431,131.286243 8.58930886,126.25125 12.416435,124.913873 C13.3946992,124.571796 14.471432,124.50381 15.482723,124.714507 C15.8998385,124.801481 17.4514835,125.742269 17.8478044,125.679182 C18.4487075,125.583633 18.3318908,124.809749 18.49152,124.396317 C18.8964033,123.348649 19.4661146,122.426236 20.1529484,121.537203 C21.2945115,120.059259 22.6856099,118.573659 24.1130989,117.371031 C25.6638266,116.063972 27.3714313,115.483942 29.2175647,114.760283 C30.4612661,114.272739 32.8890371,113.435768 34.206437,113.871863 C35.9219926,114.439949 35.0822572,116.315707 34.0012431,116.971686 C32.4572431,117.909105 30.6043819,118.293138 29.0398931,119.241582 C27.3133287,120.288332 25.7363019,121.72187 24.1562172,122.979929 C22.8846877,123.992379 21.7828791,125.241863 20.4911667,126.212663 C20.1486671,126.46991 19.5893532,126.920092 19.4829337,127.06219 C19.4459316,127.111495 19.4914962,127.511759 19.3220813,127.689688 C18.570723,128.478884 18.7465598,128.389767 17.6150882,128.11292 C16.281175,127.786462 13.096847,127.048102 12.19748,128.70275 C11.3880191,130.191719 14.7010902,131.533383 15.7888319,131.987546 C17.3857359,132.653938 17.7588157,133.323392 18.8997672,134.593395 C20.0685467,135.895247 22.0100908,136.779992 23.4742762,137.750486 C26.6390328,139.84766 30.1964406,141.33571 33.5856566,143.001995 C36.8837434,144.623262 40.4292249,145.790366 43.8658404,146.924701 C45.9407147,147.609468 48.4271999,148.344152 50.604824,148.555156 C52.7989615,148.767997 54.8567107,148.409995 57.0095647,147.99105 C57.8704006,147.823534 58.5202322,147.695217 59.4205166,147.377639 C59.8214245,147.236154 60.4755374,147.215329 60.7938785,146.967882 C61.2874447,146.584156 61.0822508,146.277603 61.1697105,145.622237 C61.5519644,142.748423 63.5445776,145.956657 64.4265138,146.91337 C65.1069258,147.65173 65.7769405,148.559443 66.6726378,149.027387 C67.7952411,149.613236 67.9900377,149.337002 68.3579189,148.370796 C69.0465875,146.561187 69.3056028,144.504438 71.9079874,144.77026 C69.8532962,143.011488 67.8952387,141.517313 66.1365649,139.403909 C64.401438,137.318985 62.7791524,135.078489 61.1152776,132.935684 C59.7513956,131.179363 58.5636563,128.755731 56.7933619,127.370273 C56.2337422,126.932341 54.5325594,125.92326 53.8848684,125.944391 C52.9157783,125.975935 52.0552483,127.560146 51.0112364,127.691832 C49.8580528,127.837605 49.3271785,127.434891 48.9978286,126.498084 C48.6562465,125.526365 49.4727408,124.407955 49.1969064,123.701445 C49.1201498,123.504835 48.6293358,123.269331 48.4776574,122.98391 C48.2495283,122.555165 48.2330149,121.99106 48.301209,121.516379 C48.4030415,120.807725 48.6534942,120.518629 48.5999787,119.805688 C48.5379007,118.977292 48.1749123,118.371537 48.4608383,117.505167 C48.7608311,116.595003 49.6840508,116.096435 50.2601839,115.424224 C51.1323344,114.406875 50.6867792,113.639728 50.3369405,112.33267 C49.5877228,109.53603 48.7140433,106.77124 47.9538167,103.976131 C46.2055402,104.529518 44.4961007,105.157016 42.7386501,105.672735 C41.0481704,106.16916 38.9561712,106.614442 37.387707,107.397207 C36.4452217,107.867601 36.7069892,107.435488 36.7767123,108.480093 C36.8213596,109.156285 37.1069797,109.9121 37.2396982,110.578798 C37.4846465,111.81052 37.5913718,114.988742 38.5555691,115.577041 C39.1393473,115.933512 40.0787745,115.415649 40.7206553,116.135328 C41.2613152,116.74047 41.0992395,117.620928 41.4246141,118.293751 C41.6267499,118.712083 42.0178721,118.871331 42.2612914,119.25567 C42.7695362,120.059259 42.7154091,120.734838 42.8050094,121.635508 C42.8612772,122.20237 42.7741233,123.900811 43.0560738,124.341499 C43.4322116,124.929185 44.1774538,124.827206 44.8058793,125.010341 C46.3893279,125.471547 47.847703,126.273912 49.1923194,127.209494 C49.8901621,128.063308 54.8845388,133.062164 52.7154772,133.698237 C51.6681015,134.005402 49.8149345,131.644857 49.0611298,131.002965 C47.8926561,130.008584 46.6688319,129.355361 45.2440952,128.806874 C41.7668078,127.468272 38.6207052,126.265337 34.833945,126.821174 C33.2104362,127.059127 31.2383118,127.778499 29.6074637,127.62017 C27.9662183,127.460922 28.3912847,125.996147 29.41756,125.178776 C30.3352752,124.448073 31.6126149,124.653564 32.0153576,123.428273 C32.4217699,122.190426 31.9853889,120.626121 32.6376669,119.385824 C33.1945344,118.326519 34.5073473,117.227095 35.5207789,116.613378 C35.9626644,116.346025 36.7201387,116.159215 36.9510201,115.765076 C37.1403122,115.44168 36.3602084,113.587972 36.2519541,113.202715 C35.7223031,111.315014 35.1449468,109.425475 34.6963336,107.517255 C34.2804414,105.748684 34.1721871,104.832089 36.0342223,104.190197 C38.8760508,103.21021 41.8554907,102.752066 44.6985424,101.851089 C44.1945788,100.5376 42.6193869,101.642842 41.4879153,101.597211 C40.1020155,101.541475 38.4983839,101.085168 37.1785376,100.659179 C34.1822786,99.6917479 32.1434891,97.2797534 31.6805032,94.1695177 C31.5786707,93.4872013 31.8994582,92.1188936 31.6511461,91.5155887 C31.4169009,90.9456646 30.7545313,90.6685119 30.2704449,90.2624295 C29.0227682,89.2162927 27.9175956,87.7799984 27.244523,86.2934796 C26.5699213,84.8035922 26.5228276,83.1299571 26.9148672,81.5576894 C27.1307642,80.6913191 27.2527796,80.5721894 26.9475881,79.752981 C26.5940797,78.8054554 26.0176408,77.9617473 25.6916547,76.9878846 C25.1577224,75.3929548 24.8665978,73.6733827 24.8956491,71.989029 C24.9286759,70.0994904 25.6861502,69.2518011 26.1879731,67.5858221 C26.5839882,66.2708012 26.0436341,64.4532304 26.1341518,62.9939676 C26.2500512,61.1267849 26.7277157,59.6267914 27.5524667,57.9647936 C28.8197149,55.4113134 30.826395,52.6740854 33.4382595,51.3351773 C33.954761,51.0702744 34.8036705,51.0546559 35.2651274,50.7468785 C35.8385083,50.3643771 35.8834614,49.800578 36.1079209,49.1305114 C36.6433821,47.5325191 37.3118678,46.2380167 38.4696384,45.0164009 C42.2245951,41.0544947 48.804561,39.6512749 54.0814998,39.9856957 C55.0291837,40.0460262 55.9325261,40.4946767 56.8306699,40.2309988 C57.4529793,40.0481699 58.1122908,39.3995406 58.7538658,39.1309627 C59.5657731,38.7910295 60.3792094,38.5922758 61.252889,38.5053019 C62.9782302,38.3331915 64.3815608,38.5151017 65.9717371,39.0978881 C66.5720286,39.3180791 67.1469385,39.5584823 67.7386675,39.7973543 C68.6728961,40.1749558 68.6196864,39.9951893 69.4982587,39.8200165 C71.2492875,39.4712022 72.2553798,39.7293677 73.806719,40.4769145 C74.2201649,40.6759745 74.8742778,40.8238913 75.229621,41.1028816 C75.7329729,41.4982453 75.9381668,42.6996489 76.4983982,42.9238211 C76.8090942,43.0484632 77.7699276,42.5900128 78.1705297,42.5247824 C78.8775465,42.4093276 79.5698848,42.5110013 80.273232,42.5033451 C81.5187682,42.4898703 82.8352506,42.5361135 83.9725325,43.125331 C84.829087,43.5687754 85.8599494,44.4244271 86.5975465,44.9943512 C87.6180116,45.7826287 88.2556111,47.2731286 89.5298927,47.6859484 C90.0289634,47.8476464 90.5690118,47.6841109 91.0784798,47.8219217 C91.7426842,48.0013819 92.3805895,48.4828009 92.9184972,48.9078705 C93.8438575,49.63888 94.6264077,51.3382398 95.5691987,51.6352986 C96.1982358,51.833746 97.1761942,51.6267237 97.8960547,51.8322148 C98.7993972,52.0900741 99.5483091,52.4636943 100.218018,53.147542 C101.495358,54.4521505 101.856205,56.3805824 101.910944,58.14946 C101.925623,58.6262853 101.631746,59.9707058 101.917366,60.3939379 C102.170877,60.7693957 103.126206,60.9859117 103.515187,61.3711694 C104.73106,62.5756354 105.280283,64.5827725 105.403216,66.2328267 C105.543885,68.1156279 105.057964,69.4425924 104.723415,71.2442384 C104.515163,72.367243 104.245751,71.6478708 105.192823,72.3093625 C105.843266,72.7635255 106.292491,73.0811027 106.714194,73.7940437 C107.59613,75.2845436 107.817837,77.041784 107.672275,78.7405313 C107.490322,80.8600607 106.416036,82.4396783 105.932867,84.444978 C108.159114,84.444978 110.557222,85.033583 112.732094,85.4442591 C113.534521,85.5958509 114.156219,86.0371516 114.868434,86.3911721 C115.483099,86.6964995 115.941497,86.7320241 116.521606,86.9344528 C117.924937,87.4241403 117.653689,87.3423726 118.630119,86.3403353 C122.519629,82.3487232 128.055888,79.9388724 133.638936,80.0172714 C136.752929,80.0607583 139.765396,80.4720469 142.676642,81.5935202 C143.883341,82.0580956 145.224593,82.5591143 146.29521,83.2879801 C147.535242,84.1326069 147.719641,84.122807 149.359052,84.1571066 C155.295608,84.2802175 161.056021,87.4700773 165.376408,91.3364347 C165.762332,88.7431424 169.972323,87.1880246 172.011113,86.1131007 C172.707732,85.7459115 173.347778,85.5545077 173.690584,84.8663726 C174.011371,84.222337 173.992411,82.8975163 174.206779,82.1389446 C174.600348,80.7458309 175.055077,79.041265 175.019604,77.5722023 C174.917772,73.3187497 173.934003,69.0848969 173.806483,64.8216445 C173.774374,63.7510081 173.65297,62.5492982 173.795168,61.4890741 C173.909844,60.6349537 174.299438,60.1023916 173.739206,59.3116641 C172.675623,57.8107518 170.714508,57.4359065 170.055196,55.4600065 C168.99253,52.2759655 170.817869,49.0199566 173.310164,47.1261305 C174.745299,46.0358943 176.147406,45.8049847 177.297531,44.2765102 C178.333287,42.8993214 179.208801,41.2707044 180.389507,40.0187703 C181.379697,38.9692648 182.281511,37.5629825 183.416346,36.6895685 C184.579621,35.7941049 186.287838,35.1886562 187.677101,34.7632804 C191.01219,33.7416433 195.107506,33.9854152 197.454239,36.8390167 Z M93.2080928,116.826219 C92.4322702,116.859294 91.6515548,116.946574 90.8742033,116.945655 C90.4014317,116.945043 89.302681,116.689633 88.8766973,116.869706 C88.0253413,117.230158 87.3363669,119.202383 86.938517,119.989435 C85.6495568,122.541078 84.6345962,125.216444 83.3771338,127.777887 C82.7230209,129.110364 81.7462857,129.986534 80.2028973,130.007971 C78.4735806,130.031859 77.6598385,128.923248 76.562311,127.785849 C74.3739838,125.516872 71.4281823,123.56639 68.7117331,121.988304 C65.7775521,120.28435 62.2788585,118.632765 58.9382651,118.030991 C56.7135473,117.630421 51.6167266,115.902274 50.2632419,118.694014 C50.9549686,118.601528 53.594967,118.197589 53.706891,119.368062 C53.7909868,120.246376 50.5433576,120.396436 50.1421439,121.773625 C50.9913592,121.707476 53.9224822,120.88888 54.1285935,122.151533 C54.238071,122.822825 53.0133295,123.16092 52.5824528,123.387236 C51.7286505,123.836499 51.2145954,124.302912 50.5424402,124.978185 C51.5794186,124.978185 52.6017184,124.097115 53.5864045,124.188989 C53.9925111,124.226963 54.4808787,124.834555 54.8502889,125.019834 C55.3744354,125.282287 55.9401712,125.413054 56.5181391,125.484716 C57.776519,125.640595 58.5382746,125.28535 59.5416147,126.105477 C60.4425107,126.841693 61.3791857,127.813718 62.2091354,128.633232 C63.9803471,130.382817 65.4384164,132.603407 66.9579522,134.569507 C68.8340544,136.996814 70.7823261,138.923715 73.2779854,140.741898 C75.3094356,142.221373 77.3684081,143.179617 79.6701882,144.268935 C81.9282385,145.337734 84.7682322,146.577112 87.329945,146.635911 C89.3733215,146.683073 91.9273893,146.027094 93.7869781,145.154599 C94.8686038,144.647149 95.2618666,144.647761 96.3441039,144.446864 C98.0238805,144.135105 99.9681768,143.232904 101.523186,142.52517 C106.40625,140.302435 109.500672,135.458234 111.702454,130.716625 C112.955636,128.017984 113.738492,125.381205 114.260803,122.461454 C114.5452,120.870812 114.793207,120.497498 113.244314,119.839681 C111.679825,119.175433 109.989039,118.764757 108.360638,118.295588 C103.584299,116.919624 98.1400856,116.616134 93.2080928,116.826219 Z M104.876011,88.0436763 C104.388867,88.2632547 104.129852,90.6072626 103.910896,91.1294123 C102.935079,93.4596391 101.203927,94.9136958 98.6651496,95.1562427 C97.877095,95.2315793 96.5918044,94.5137383 96.026986,94.853059 C95.2707349,95.3075283 95.1340409,97.4797321 94.3202988,98.1923669 C93.5710811,98.8486523 92.0102619,99.5422998 91.0494285,99.7946466 C90.3075501,99.9894192 89.5717878,99.9358261 88.8326616,99.7643283 C88.4109591,99.6666357 87.6066969,99.1454048 87.1938626,99.3420148 C86.4908212,99.6770481 86.1596364,101.460932 85.357209,102.066074 C84.1838424,102.950819 82.320584,103.606186 80.8842267,103.589649 C79.4029163,103.572499 77.6173318,102.40172 76.2984029,102.681935 C74.7326909,103.014518 74.9384964,104.471638 74.2550264,105.610567 C72.803379,108.029299 71.1538769,110.112691 68.544153,111.267545 C65.7212843,112.516417 61.6748973,112.675359 58.7141114,112.039898 C57.1046695,111.694453 55.4894174,111.20599 54.1310399,110.282964 C53.1284261,109.601528 52.3573674,108.710711 51.4523861,107.922562 L51.0706061,107.604881 L51.1464014,107.859945 C51.62376,109.382601 51.8356816,112.084304 52.7839771,113.326132 C53.6325808,114.437499 56.5789939,114.499667 57.9976147,114.649115 C61.7990534,115.049991 65.0680888,115.940249 68.4215259,117.848162 C71.6312356,119.674308 74.5629702,121.88418 77.3418032,124.265856 C77.9127377,124.754931 78.3689959,125.539228 79.0594994,125.854049 C80.1873013,126.36793 80.096172,125.767994 80.39433,124.7632 C81.0062421,122.70247 81.6551564,120.666852 82.5875501,118.724333 C82.9866232,117.891649 83.8951643,116.860212 84.0899609,115.97608 C84.2765008,115.127778 83.8933295,114.202302 84.0236016,113.291526 C84.35234,110.990699 85.3905416,109.028886 86.6917339,107.168135 C87.5950763,105.876695 90.2977644,103.677848 89.9525127,106.928344 C89.6974728,109.328701 87.9458325,111.455274 87.5149559,113.813676 C88.8430589,113.565923 89.6766782,113.638197 90.8723685,113.71384 C92.5038282,113.817045 94.3591358,113.178215 96.041053,113.172703 C99.2654412,113.162597 102.441512,113.372988 105.610856,113.947812 C107.078711,114.214246 108.476231,114.515286 109.891488,115.017836 C111.003388,115.412587 112.481947,116.670034 113.666628,116.765889 C114.525323,116.835406 114.225942,116.948105 114.459575,116.214952 C114.676696,115.534779 114.443368,114.31102 114.399944,113.597466 C114.301475,111.98263 113.914634,110.410975 113.714027,108.806858 C113.628097,108.118417 112.807015,105.24889 113.673356,104.692747 C114.999318,103.841689 115.553433,107.180997 115.722237,107.779096 C116.587048,110.845232 117.143304,113.866044 117.117616,117.071828 C117.094987,119.844275 116.910893,122.509229 116.392557,125.265444 C116.086142,126.893448 115.524076,128.457141 114.89351,129.983778 C114.561408,130.78798 112.613136,133.836354 112.884078,134.373204 C113.101198,134.80348 116.411823,134.054401 116.920985,134.010915 C118.733174,133.855648 120.549951,133.963753 122.364281,133.855954 C125.045868,133.6964 127.747333,133.729168 130.315162,133.256324 C131.846318,132.973965 133.47105,133.243768 135.000677,133.253568 C136.687793,133.264593 138.318336,133.108713 140.01646,133.269799 C141.306032,133.391685 143.241154,134.072776 144.485162,133.789805 C145.758832,133.500096 145.382694,132.6472 145.391562,131.349942 C145.412357,128.215513 145.133464,124.608546 144.433787,121.560784 C144.064682,119.953911 143.568364,118.398487 143.303538,116.76497 C143.038713,115.13084 143.052474,113.364719 142.559825,111.782345 C141.68584,108.974681 139.28345,106.537574 137.293284,104.462756 C135.24532,102.327608 132.967392,100.77739 130.454914,99.2461598 C128.319491,97.94492 126.062969,96.7229979 123.749263,95.7050358 C120.97257,94.4831137 117.819434,93.7297482 115.246101,92.1210373 C113.104562,90.7824354 110.007082,89.4625146 107.536498,88.8426724 C107.145376,88.7446737 105.152457,87.9193403 104.876011,88.0436763 Z M181.152486,62.0954415 C179.370877,62.3459508 176.040375,61.475293 176.041904,63.9329183 C176.042515,65.2810137 176.4896,66.6946459 176.616508,68.0433538 C176.766046,69.634915 176.662684,71.2365823 176.90488,72.8220185 C177.297226,75.3883611 177.872747,77.7583999 177.680091,80.3951791 C177.470004,83.2613367 176.873077,86.0154081 176.928733,88.9226027 C176.981331,91.6892302 176.832405,94.3569403 178.146441,96.8957207 C178.700862,97.9675822 179.150698,99.2268663 179.760776,100.229822 C180.475743,101.405195 181.094995,101.749416 182.372946,102.222872 C183.173233,102.519318 185.143828,102.905189 185.662164,103.704185 C186.410771,104.857508 185.4111,105.323921 184.42672,105.284721 C181.386425,105.163754 178.264787,103.806471 175.414396,102.815152 C174.073143,102.348433 172.782348,101.760747 171.464337,101.251459 C170.411151,100.844458 169.552456,100.703891 168.59468,100.009631 C166.260485,98.3176215 164.458693,95.9791261 162.156913,94.2436292 C157.80197,90.9603644 152.580994,89.0000829 147.111399,88.4185215 C145.704093,88.2687672 144.614516,88.3361413 143.20507,88.4555773 C142.425272,88.5217265 141.653119,88.5428575 140.880966,88.6861807 C140.435105,88.7691734 138.75808,89.566332 138.409771,89.4006529 C136.147133,88.324504 142.554015,85.0485891 143.274487,84.8694351 C142.364417,84.2278495 140.473636,84.3384043 139.381613,84.1956936 C137.987457,84.0131709 136.632137,83.8352419 135.22422,83.9121097 C133.256071,84.0199083 131.162542,83.9617216 129.230784,84.3867912 C126.810658,84.919047 124.518664,85.7364179 122.33156,86.8833097 C121.601302,87.2661173 120.574109,87.7316115 120.581107,88.798573 C120.587564,89.8012228 120.986637,89.6370749 121.962455,89.8591033 C124.591445,90.4578145 127.024414,92.2009675 129.366561,93.529157 C131.857021,94.9409517 134.33739,96.5273066 136.648345,98.2190103 C141.078515,101.462463 143.606895,106.128735 145.574432,111.20109 C146.592145,113.824394 147.330048,116.888081 147.636157,119.684108 C147.977127,122.794956 147.692731,125.923567 147.93615,129.031046 C147.993335,129.765424 148.091498,132.695894 148.645307,133.152507 C149.065481,133.498871 151.150752,132.879641 151.738506,132.839217 C154.195634,132.669863 156.667747,132.686706 159.078087,132.547671 C164.172461,132.25398 169.394967,132.663738 174.535823,132.361473 C177.122,132.209269 179.625305,131.845448 182.16133,131.323298 C184.518461,130.838205 187.4557,130.780324 189.605802,129.659463 C193.744847,127.501959 196.268029,122.300675 196.449676,117.896549 C196.646613,113.122478 196.320627,107.927319 195.31851,103.171316 C194.79314,100.677554 194.337493,98.3041467 193.71916,95.8397841 C193.027127,93.0808127 192.250081,90.3337849 191.490466,87.6088068 C190.181935,82.918341 188.145286,78.5485149 187.170386,73.7410631 C186.634007,71.0966278 185.874086,68.3318377 185.080833,65.7507953 C184.788485,64.7995948 184.212046,62.9924364 183.531634,62.2696955 C182.816666,61.5108176 182.216375,61.9459933 181.152486,62.0954415 Z M35.9235216,119.221676 C34.8504584,119.908586 34.0767765,121.452986 34.125705,122.726357 C34.125705,124.407036 35.5201672,123.691032 36.8342033,123.751975 C37.6341843,123.789031 40.5925238,124.610077 41.1126949,123.817512 C41.733781,122.870905 39.8659355,123.293525 39.6295497,122.785769 C39.1515794,121.758926 41.3432704,121.325281 41.0753869,120.43533 C40.8075034,119.545685 38.580645,121.599065 38.1032863,120.565791 C37.6614008,119.609384 39.9108886,118.782213 39.5656368,118.123478 C39.2726774,117.565191 36.3027175,118.978517 35.9235216,119.221676 Z M40.5831968,110.464905 C40.5776923,111.181215 40.3309092,112.133946 39.4407163,111.987867 C38.3291219,111.805344 37.9921268,109.670196 37.8906002,108.862319 C38.6025099,106.202265 40.5951231,108.833226 40.5831968,110.464905 Z M72.8602584,87.6026818 C71.5749678,87.8041918 71.4300171,88.3799345 70.829114,89.2634546 C70.5548086,89.0447949 70.384782,88.7547798 70.3193402,88.3934094 C67.2805745,89.7629421 64.1188759,90.832966 60.8229298,91.3391909 C57.15054,91.9036025 53.3197442,91.0494821 49.5883344,90.7015865 C49.1054713,90.6565683 47.6232435,90.0593883 47.2296749,90.2964228 C46.9039945,90.4927266 46.909499,92.1403308 46.8828941,92.4588268 C46.7015529,94.6294994 47.1153045,96.5472126 47.4339514,98.6716421 C47.5189646,99.2372787 47.4354804,100.462263 47.8810355,100.944907 C48.1944837,101.284228 48.7522687,101.160811 49.1492011,101.67316 C50.2270552,103.065815 50.5577955,105.772934 51.0564704,107.555439 L51.0576061,107.560881 L51.0701395,107.426664 C51.2664166,105.745192 52.652769,106.65263 53.6894602,107.120054 C55.2781074,107.83667 56.9428997,108.219784 58.6615133,108.4608 C60.0434376,108.654653 61.6112902,109.118004 63.0289935,109.043892 C64.517949,108.966412 66.3494039,108.376582 67.7989108,107.952125 C69.1722726,107.55033 69.9300528,106.680591 70.8780425,105.560649 C71.7835255,104.490931 72.7688232,103.75839 73.74617,102.803821 C76.2078852,100.399176 75.5338951,95.4168582 73.3954138,93.0633566 C75.1256479,92.1749366 78.1261882,90.222005 75.4947523,88.241205 C74.8146462,87.7288552 73.6804223,87.4740585 72.8602584,87.6026818 Z M51.0576061,107.560881 L51.055272,107.591979 L51.0706061,107.604881 L51.0576061,107.560881 Z M59.4875487,103.431228 C60.1697954,103.482983 60.6599979,103.996252 60.4804914,104.70368 C60.2535855,105.597306 58.7007172,106.157124 57.9242831,106.206736 C55.8665338,106.452958 57.8129707,103.304748 59.4875487,103.431228 Z M52.9890487,99.9928185 C53.0627472,100.511599 52.9896603,100.834995 53.4391909,101.003431 C53.7829136,101.13236 54.4324395,100.867151 54.8550594,101.046305 C55.2767619,101.225459 55.2902172,101.33387 55.5492325,101.754652 C55.2559673,102.672778 53.9101277,103.711259 52.8303369,103.159097 C51.4875553,102.472493 51.3624818,99.7643589 51.7306688,98.608586 C52.3545072,96.6498357 52.8789596,99.2189345 52.9890487,99.9928185 Z M172.385722,89.6499372 C171.82549,89.8535909 171.331312,90.4308649 170.830407,90.7450734 C169.497717,91.5808191 168.039953,92.0245697 166.763531,92.9396332 C167.67513,93.923602 168.152489,95.2579164 169.042682,96.2048295 C169.599855,96.7974157 170.277209,96.8632586 170.947224,97.1848171 C172.904975,98.1246865 175.209202,99.446751 177.371842,99.8960141 C176.105511,98.4137828 175.302166,97.072731 174.550196,95.2716975 C174.281395,94.6276619 173.944094,93.9465705 173.742876,93.2777289 C173.454198,92.319791 173.609546,91.3061163 173.364903,90.3607345 C173.101301,89.3403224 173.464901,89.2579422 172.385722,89.6499372 Z M49.2952527,95.2614995 C49.8646581,95.934016 50.3022624,97.4496281 50.3505793,98.3083423 C49.7499819,101.18675 47.7390206,97.2153498 47.8001812,95.9263599 C47.8570606,94.7375124 48.480899,94.3004991 49.2952527,95.2614995 Z M54.7434107,93.686445 C55.7192284,94.5191282 56.0378753,95.9097919 56.1390961,97.0588274 C56.2491853,98.3043304 55.9647884,98.83383 54.7247567,98.0333026 C53.6391556,97.3323052 53.0960492,95.4660413 53.0397814,94.3724363 C53.0397814,93.1260146 53.7978674,92.8794865 54.7434107,93.686445 Z M74.3745649,90.1214644 C74.61829,91.421173 71.7412941,92.7570186 72.2110077,90.7217068 C72.1168204,89.422917 74.1158554,88.7445818 74.3745649,90.1214644 Z M210.213263,66.6003221 C208.040226,69.2545573 205.40879,70.9398298 202.689589,72.9454357 C200.280777,74.7222758 197.987254,76.6418265 195.379365,78.1167079 C194.613634,78.5500462 193.359535,78.8020867 193.221006,79.6069016 C193.09104,80.3636358 194.494676,82.3958851 194.819133,83.2163185 C195.91452,85.9832523 196.723064,88.8227664 197.579312,91.6778991 C200.131545,87.6979244 202.705796,83.6518005 205.834162,80.0531022 C208.594953,76.8773298 211.426996,73.554253 213.840394,70.1322587 C212.379572,69.2420012 211.169203,68.0142605 210.213263,66.6003221 Z M226.141936,60.4793806 C223.72181,61.2361148 220.933803,61.6621032 218.411539,61.4042439 C217.268141,61.2872579 216.141868,61.1898716 214.987461,61.1185163 C214.123262,61.0652295 212.661523,60.6435285 211.918115,61.3099201 C211.214768,61.9398684 211.299781,63.1936401 211.657877,63.9767114 C211.88937,64.4829363 212.210769,64.564704 212.42055,64.983955 C212.488132,65.1190095 212.287831,65.3523691 212.461833,65.6699463 C212.940109,66.5439728 214.567594,68.0044606 215.444331,68.4494362 C216.569075,69.0205853 216.737267,68.3563374 217.614004,67.7809009 C219.460138,66.5696975 222.561593,66.5476477 224.724233,66.3296005 C224.767963,66.7950946 231.035704,64.5573541 231.654344,64.1466781 C232.811197,63.378919 234.166822,59.8451449 232.935964,58.7977831 C231.450373,57.5335991 227.579211,60.029505 226.141936,60.4793806 Z M183.992479,43.6349246 C183.230724,44.8494967 182.217598,46.1534928 181.092243,47.0621251 C179.821325,48.0883558 178.171823,48.4867821 176.718952,49.1890044 C175.402775,49.8247714 174.233078,50.4617634 173.411691,51.6885854 C172.843203,52.5371934 171.801638,53.7278784 172.27655,54.8214833 C172.762471,55.9402004 174.676493,56.724803 175.507972,57.6971345 C176.652898,59.0357363 176.654427,58.7729772 178.369371,58.4030318 C179.225926,58.2180592 180.039668,58.1604849 180.915182,58.1911095 C181.269303,58.2033594 182.464993,58.5506425 182.779053,58.3175892 C183.180878,58.0189992 182.78578,56.7793148 182.836544,56.2969772 C182.914218,55.5632114 183.174762,54.806171 183.421851,54.114361 C184.401644,51.3679457 186.264597,49.5568061 188.075869,47.4743323 C190.018942,45.2399606 192.681264,43.6716741 194.596203,41.42689 C195.653364,40.1875119 195.17203,39.3113417 193.7213,38.7310053 C192.984009,38.4363965 192.120115,38.4376215 191.363558,38.2027307 C190.581314,37.9598775 189.884388,37.481521 189.046182,37.4720274 C185.484187,37.3290105 185.370734,41.4369961 183.992479,43.6349246 Z" id="Ink" fill="#000000"></path>
                    </g>
                </g>
            </g>
        </g>
    </g>
</svg>